<svg aria-hidden="true" style="width:0;height:0;position:absolute;overflow:hidden" xmlns="http://www.w3.org/2000/svg"><defs><symbol id="logo-film" viewBox="0 0 32 32"><path stroke-width="2.667" d="M26.427 3.605H5.574c-1.605 0-2.907 1.24-2.907 2.768v19.856c0 1.528 1.301 2.768 2.907 2.768h20.853c1.605 0 2.907-1.24 2.907-2.768V6.373c0-1.528-1.301-2.768-2.907-2.768zm-17.094 0v25.392M22.667 3.605v25.392m-20-12.696h26.667M2.667 9.953h6.667M2.667 22.649h6.667m13.333 0h6.667M22.667 9.953h6.667"/></symbol><symbol id="heart" viewBox="0 0 34 32"><path fill="#ff6b08" style="fill:var(--color2,#ff6b08)" d="m17.231 31.705-2.412-2.412C5.859 21.367.001 16.025.001 9.478.001 4.136 4.136.001 9.478.001c2.929 0 5.858 1.378 7.754 3.618 1.895-2.24 4.825-3.618 7.754-3.618 5.342 0 9.477 4.135 9.477 9.477 0 6.548-5.858 11.889-14.818 19.815l-2.412 2.412z"/></symbol><symbol id="close-btn" viewBox="0 0 32 32"><path stroke-width="2.133" d="m8.533 8.533 14.933 14.933m-14.933.001L23.466 8.534"/></symbol><symbol id="close-modal-btn" viewBox="0 0 32 32"><path d="m8 8 14 14M8 22 22 8" stroke-width="2"/></symbol><symbol id="icon-search-icon" viewBox="0 0 32 32"><path stroke-width="2.667" d="M14.667 25.333c5.891 0 10.667-4.776 10.667-10.667S20.558 3.999 14.667 3.999 4 8.775 4 14.666s4.776 10.667 10.667 10.667zM28 28.001l-5.8-5.8"/></symbol><symbol id="icon-moon-svgrepo-com" viewBox="0 0 32 32"><path d="M17.212 31.294C8.774 31.294 1.918 24.431 1.918 16S8.781.706 17.212.706c.512 0 1.025.025 1.538.075.45.044.844.325 1.031.731s.15.887-.1 1.262a12.637 12.637 0 0 0-2.2 7.138 12.68 12.68 0 0 0 11.45 12.663c.45.044.844.325 1.031.731.194.406.15.887-.1 1.262-2.863 4.212-7.587 6.725-12.65 6.725zm-.781-28C9.775 3.7 4.481 9.244 4.481 16c0 7.019 5.713 12.731 12.731 12.731 3.525 0 6.85-1.462 9.238-3.981a15.31 15.31 0 0 1-7.55-4.538 15.26 15.26 0 0 1-2.469-16.918z"/></symbol><symbol id="icon-sun-svgrepo-com" viewBox="0 0 32 32"><path fill="#ffde55" style="fill:var(--color1,#ffde55)" d="M15.089 26.586h1.822V32h-1.822v-5.414zM15.089 0h1.822v5.414h-1.822V0z"/><path fill="#fceba2" style="fill:var(--color2,#fceba2)" d="m5.331 27.958-1.289-1.289 3.828-3.828 1.289 1.289-3.828 3.828zM24.13 9.159 22.841 7.87l3.828-3.828 1.289 1.289-3.828 3.828z"/><path fill="#ffde55" style="fill:var(--color1,#ffde55)" d="M0 15.089h5.414v1.822H0v-1.822zM26.586 15.089H32v1.822h-5.414v-1.822z"/><path fill="#fceba2" style="fill:var(--color2,#fceba2)" d="m4.042 5.331 1.289-1.289L9.159 7.87 7.87 9.159 4.042 5.331zM22.841 24.13l1.289-1.289 3.828 3.828-1.289 1.289-3.828-3.828zM24.691 16a8.692 8.692 0 1 1-17.384 0 8.692 8.692 0 0 1 17.384 0z"/><path fill="#ffde55" style="fill:var(--color1,#ffde55)" d="M22.669 16a6.67 6.67 0 1 1-13.338 0 6.67 6.67 0 0 1 13.338 0z"/></symbol><symbol id="icon-close" viewBox="0 0 32 32"><path d="m26.667 7.303-1.97-1.97-7.808 7.808-7.808-7.808-1.97 1.97 7.808 7.808-7.808 7.808 1.97 1.97 7.808-7.808 7.808 7.808 1.97-1.97-7.808-7.808 7.808-7.808z"/></symbol></defs></svg>