<svg aria-hidden="true" style="position: absolute; width: 0; height: 0; overflow: hidden;" version="1.1" xmlns="http://www.w3.org/2000/svg" xmlns:xlink="http://www.w3.org/1999/xlink">
<defs>
  <symbol id="logo-film" viewBox="0 0 32 32">
    <path stroke-width="2.6667" d="M26.427 3.605h-20.853c-1.605 0-2.907 1.24-2.907 2.768v19.856c0 1.528 1.301 2.768 2.907 2.768h20.853c1.605 0 2.907-1.24 2.907-2.768v-19.856c0-1.528-1.301-2.768-2.907-2.768zM9.333 3.605v25.392M22.667 3.605v25.392M2.667 16.301h26.667M2.667 9.953h6.667M2.667 22.649h6.667M22.667 22.649h6.667M22.667 9.953h6.667"></path>
  </symbol>
  <symbol id="heart" viewBox="0 0 34 32">
    <path fill="#ff6b08" style="fill: var(--color2, #ff6b08)" d="M17.231 31.705l-2.412-2.412c-8.96-7.926-14.818-13.268-14.818-19.815 0-5.342 4.135-9.477 9.477-9.477 2.929 0 5.858 1.378 7.754 3.618 1.895-2.24 4.825-3.618 7.754-3.618 5.342 0 9.477 4.135 9.477 9.477 0 6.548-5.858 11.889-14.818 19.815l-2.412 2.412z"></path>
  </symbol>
  <symbol id="close-btn" viewBox="0 0 32 32">
    <path stroke-linejoin="miter" stroke-linecap="butt" stroke-miterlimit="4" stroke-width="2.1333" d="M8.533 8.533l14.933 14.933M8.533 23.467l14.933-14.933"></path>
  </symbol>
   <symbol id="close-modal-btn" viewBox="0 0 32 32">
    <path d="M8 8L22 22" stroke-width="2"/>
    <path d="M8 22L22 8" stroke-width="2"/>
   </symbol>
  <symbol id="icon-search-icon" viewBox="0 0 32 32">
    <path stroke-width="2.6667" d="M14.667 25.333c5.891 0 10.667-4.776 10.667-10.667s-4.776-10.667-10.667-10.667c-5.891 0-10.667 4.776-10.667 10.667s4.776 10.667 10.667 10.667z"></path>
    <path stroke-width="2.6667" d="M28 28.001l-5.8-5.8"></path>
  </symbol>
  <symbol id="icon-moon-svgrepo-com" viewBox="0 0 32 32">
<path d="M17.212 31.294c-8.438 0-15.294-6.863-15.294-15.294s6.863-15.294 15.294-15.294c0.512 0 1.025 0.025 1.538 0.075 0.45 0.044 0.844 0.325 1.031 0.731s0.15 0.887-0.1 1.262c-1.438 2.112-2.2 4.581-2.2 7.138 0 6.563 4.919 12.012 11.45 12.663 0.45 0.044 0.844 0.325 1.031 0.731 0.194 0.406 0.15 0.887-0.1 1.262-2.863 4.212-7.587 6.725-12.65 6.725zM16.431 3.294c-6.656 0.406-11.95 5.95-11.95 12.706 0 7.019 5.713 12.731 12.731 12.731 3.525 0 6.85-1.462 9.238-3.981-2.887-0.731-5.506-2.3-7.55-4.538-2.569-2.825-3.988-6.475-3.988-10.287 0.006-2.319 0.525-4.575 1.519-6.631z"></path>
</symbol>
<symbol id="icon-sun-svgrepo-com" viewBox="0 0 32 32">
<path fill="#ffde55" style="fill: var(--color1, #ffde55)" d="M15.089 26.586h1.822v5.414h-1.822v-5.414z"></path>
<path fill="#ffde55" style="fill: var(--color1, #ffde55)" d="M15.089 0h1.822v5.414h-1.822v-5.414z"></path>
<path fill="#fceba2" style="fill: var(--color2, #fceba2)" d="M5.331 27.958l-1.289-1.289 3.828-3.828 1.289 1.289-3.828 3.828z"></path>
<path fill="#fceba2" style="fill: var(--color2, #fceba2)" d="M24.13 9.159l-1.289-1.289 3.828-3.828 1.289 1.289-3.828 3.828z"></path>
<path fill="#ffde55" style="fill: var(--color1, #ffde55)" d="M0 15.089h5.414v1.822h-5.414v-1.822z"></path>
<path fill="#ffde55" style="fill: var(--color1, #ffde55)" d="M26.586 15.089h5.414v1.822h-5.414v-1.822z"></path>
<path fill="#fceba2" style="fill: var(--color2, #fceba2)" d="M4.042 5.331l1.289-1.289 3.828 3.828-1.289 1.289-3.828-3.828z"></path>
<path fill="#fceba2" style="fill: var(--color2, #fceba2)" d="M22.841 24.13l1.289-1.289 3.828 3.828-1.289 1.289-3.828-3.828z"></path>
<path fill="#fceba2" style="fill: var(--color2, #fceba2)" d="M24.691 16c0 4.8-3.891 8.692-8.692 8.692s-8.692-3.891-8.692-8.692c0-4.8 3.891-8.692 8.692-8.692s8.692 3.891 8.692 8.692z"></path>
<path fill="#ffde55" style="fill: var(--color1, #ffde55)" d="M22.669 16c0 3.683-2.986 6.669-6.669 6.669s-6.669-2.986-6.669-6.669c0-3.683 2.986-6.669 6.669-6.669s6.669 2.986 6.669 6.669z"></path>
</symbol>
<symbol id="icon-close" viewBox="0 0 32 32">
<path d="M26.667 7.303l-1.97-1.97-7.808 7.808-7.808-7.808-1.97 1.97 7.808 7.808-7.808 7.808 1.97 1.97 7.808-7.808 7.808 7.808 1.97-1.97-7.808-7.808 7.808-7.808z"></path>
</symbol>
</defs>
</svg>

