<!-- Generated by IcoMoon.io -->
<svg version="1.1" xmlns="http://www.w3.org/2000/svg" width="1024" height="1024" viewBox="0 0 1024 1024">
<title></title>
<g id="icomoon-ignore">
</g>
<path fill="#d22215" d="M1024 512c0 282.77-229.23 512-512 512s-512-229.23-512-512c0-282.77 229.23-512 512-512s512 229.23 512 512z"></path>
<path fill="#a81411" d="M769.714 340.678c-15.354 4.686-31.364 8.712-47.398 12.722-113.778 24.134-265.482-41.374-330.99 65.508-54.634 84.988-71.884 191.336-134.034 267.326l331.966 331.966c220.94-33.44 395.546-208.072 428.952-429.022l-248.496-248.5z"></path>
<path fill="#fff" d="M683.298 304.666h-342.596c-67.216 0-121.704 54.49-121.704 121.704v171.264c0 67.216 54.49 121.704 121.704 121.704h342.596c67.216 0 121.704-54.49 121.704-121.704v-171.264c0-67.214-54.49-121.704-121.704-121.704v0zM600.988 520.334l-160.24 76.424c-4.272 2.038-9.206-1.072-9.206-5.802v-157.628c0-4.8 5.064-7.91 9.34-5.74l160.24 81.202c4.772 2.414 4.686 9.248-0.134 11.544v0z"></path>
<path fill="#d1d1d1" d="M683.298 304.666h-174.746v157.21l92.574 46.91c4.768 2.416 4.682 9.248-0.138 11.546l-92.436 44.088v154.918h174.746c67.216 0 121.704-54.49 121.704-121.704v-171.264c0-67.214-54.49-121.704-121.704-121.704z"></path>
</svg>
